{
	"asset":{
		"generator":"Khronos glTF Blender I/O v4.1.62",
		"version":"2.0"
	},
	"scene":0,
	"scenes":[
		{
			"name":"Scene",
			"nodes":[
				0
			]
		}
	],
	"nodes":[
		{
			"mesh":0,
			"name":"B\u00e9zierCurve"
		}
	],
	"meshes":[
		{
			"name":"B\u00e9zierCurve",
			"primitives":[
				{
					"attributes":{
						"POSITION":0,
						"NORMAL":1,
						"TEXCOORD_0":2
					},
					"indices":3
				}
			]
		}
	],
	"accessors":[
		{
			"bufferView":0,
			"componentType":5126,
			"count":825,
			"max":[
				1,
				1,
				0.9999997019767761
			],
			"min":[
				-1,
				-1,
				-1.0000001192092896
			],
			"type":"VEC3"
		},
		{
			"bufferView":1,
			"componentType":5126,
			"count":825,
			"type":"VEC3"
		},
		{
			"bufferView":2,
			"componentType":5126,
			"count":825,
			"type":"VEC2"
		},
		{
			"bufferView":3,
			"componentType":5123,
			"count":4608,
			"type":"SCALAR"
		}
	],
	"bufferViews":[
		{
			"buffer":0,
			"byteLength":9900,
			"byteOffset":0,
			"target":34962
		},
		{
			"buffer":0,
			"byteLength":9900,
			"byteOffset":9900,
			"target":34962
		},
		{
			"buffer":0,
			"byteLength":6600,
			"byteOffset":19800,
			"target":34962
		},
		{
			"buffer":0,
			"byteLength":9216,
			"byteOffset":26400,
			"target":34963
		}
	],
	"buffers":[
		{
			"byteLength":35616,
			"uri":"connector.bin"
		}
	]
}
