{
	"asset":{
		"generator":"Khronos glTF Blender I/O v4.1.62",
		"version":"2.0"
	},
	"scene":0,
	"scenes":[
		{
			"name":"Scene",
			"nodes":[
				0
			]
		}
	],
	"nodes":[
		{
			"mesh":0,
			"name":"mesh03",
			"rotation":[
				0.70710688829422,
				0,
				0,
				0.7071066498756409
			]
		}
	],
	"materials":[
		{
			"doubleSided":true,
			"name":"Gradient",
			"pbrMetallicRoughness":{
				"baseColorFactor":[
					0,
					0,
					0,
					1
				],
				"metallicFactor":0.03636400029063225,
				"roughnessFactor":1
			}
		}
	],
	"meshes":[
		{
			"name":"mesh03",
			"primitives":[
				{
					"attributes":{
						"POSITION":0,
						"NORMAL":1,
						"TEXCOORD_0":2
					},
					"indices":3,
					"material":0
				}
			]
		}
	],
	"accessors":[
		{
			"bufferView":0,
			"componentType":5126,
			"count":366,
			"max":[
				11.661139488220215,
				15.211299896240234,
				0.07800102233886719
			],
			"min":[
				-7.498260974884033,
				-3.071800470352173,
				-32.463401794433594
			],
			"type":"VEC3"
		},
		{
			"bufferView":1,
			"componentType":5126,
			"count":366,
			"type":"VEC3"
		},
		{
			"bufferView":2,
			"componentType":5126,
			"count":366,
			"type":"VEC2"
		},
		{
			"bufferView":3,
			"componentType":5123,
			"count":2178,
			"type":"SCALAR"
		}
	],
	"bufferViews":[
		{
			"buffer":0,
			"byteLength":4392,
			"byteOffset":0,
			"target":34962
		},
		{
			"buffer":0,
			"byteLength":4392,
			"byteOffset":4392,
			"target":34962
		},
		{
			"buffer":0,
			"byteLength":2928,
			"byteOffset":8784,
			"target":34962
		},
		{
			"buffer":0,
			"byteLength":4356,
			"byteOffset":11712,
			"target":34963
		}
	],
	"buffers":[
		{
			"byteLength":16068,
			"uri":"RocksLowPoly.bin"
		}
	]
}
